<?xml version="1.0" encoding="UTF-8"?>
<!DOCTYPE svg PUBLIC "-//W3C//DTD SVG 1.1//EN" "http://www.w3.org/Graphics/SVG/1.1/DTD/svg11.dtd">
<!-- Creator: CorelDRAW X5 -->
<svg xmlns="http://www.w3.org/2000/svg" xml:space="preserve" width="2048px" height="2048px" style="shape-rendering:geometricPrecision; text-rendering:geometricPrecision; image-rendering:optimizeQuality; fill-rule:evenodd; clip-rule:evenodd"
viewBox="0 0 2048 2048"
 xmlns:xlink="http://www.w3.org/1999/xlink">
 <defs>
  <style type="text/css">
   <![CDATA[
    .fil2 {fill:none}
    .fil0 {fill:#424242}
    .fil1 {fill:#424242;fill-rule:nonzero}
   ]]>
  </style>
 </defs>
 <g id="Layer_x0020_1">
  <metadata id="CorelCorpID_0Corel-Layer"/>
  <path class="fil0" d="M320 1376l1409 0 32 0 0 32 0 352 0 32 -32 0 -1409 0 -32 0 0 -32 0 -352 0 -32 32 0zm160 96l0 224 -64 0 0 -224 64 0zm128 0l0 224 -64 0 0 -224 64 0zm128 0l0 224 -64 0 0 -224 64 0zm128 0l0 224 -64 0 0 -224 64 0zm128 0l0 224 -64 0 0 -224 64 0zm128 0l0 224 -64 0 0 -224 64 0zm128 0l0 224 -64 0 0 -224 64 0zm128 0l0 224 -64 0 0 -224 64 0zm128 0l0 224 -64 0 0 -224 64 0zm128 0l0 224 -64 0 0 -224 64 0z"/>
  <g id="_438160632">
   <path class="fil0" d="M950 706l42 -14 0 44 0 576 0 32 -32 0 -384 0 -32 0 0 -32 0 -448 0 -23 22 -7 384 -128zm-214 254l0 258 -64 0 0 -258 64 0zm128 0l0 258 -64 0 0 -258 64 0z"/>
   <polygon class="fil1" points="576,765 608,445 611,416 640,416 768,416 796,416 800,444 832,700 835,726 810,734 618,798 571,814 "/>
  </g>
  <g id="_438160440">
   <path class="fil0" d="M1462 706l42 -14 0 44 0 576 0 32 -32 0 -384 0 -32 0 0 -32 0 -448 0 -23 22 -7 384 -128zm-214 254l0 258 -64 0 0 -258 64 0zm128 0l0 258 -64 0 0 -258 64 0z"/>
   <polygon class="fil1" points="1088,765 1120,445 1123,416 1152,416 1280,416 1308,416 1312,444 1344,700 1347,726 1322,734 1130,798 1083,814 "/>
  </g>
  <rect class="fil2" width="2048" height="2048"/>
 </g>
</svg>
