<svg fill="#000000" xmlns="http://www.w3.org/2000/svg"  viewBox="0 0 50 50" width="50px" height="50px"><path d="M 26.640625 4.203125 C 26.529063 4.209375 26.418047 4.2342969 26.310547 4.2792969 C 25.950547 4.4292969 19.550078 7.089375 14.580078 9.609375 L 29.080078 29.859375 C 32.366657 26.663403 35.50453 23.167947 36.847656 21.660156 C 36.935428 22.027983 37 22.450511 37 23 L 37 33 L 35 33 C 34.45 33 34 33.45 34 34 L 34 40 C 34 40.13 34.020313 40.249141 34.070312 40.369141 L 36.070312 45.369141 C 36.220313 45.749141 36.59 46 37 46 L 43 46 C 43.41 46 43.779688 45.749141 43.929688 45.369141 L 45.929688 40.369141 C 45.979687 40.249141 46 40.13 46 40 L 46 34 C 46 33.45 45.55 33 45 33 L 43 33 L 43 23 C 43 20.2604 41.967954 18.175074 40.423828 16.863281 C 38.879702 15.551488 36.898733 15 35 15 C 34.979579 15 34.963484 15.003732 34.943359 15.003906 L 27.509766 4.6191406 C 27.307266 4.3341406 26.975312 4.184375 26.640625 4.203125 z M 12.142578 10.138672 C 11.890078 10.096922 11.620984 10.150047 11.396484 10.310547 L 8.953125 12.058594 C 8.504125 12.379594 8.4006562 13.003125 8.7226562 13.453125 L 23.599609 34.228516 C 23.920609 34.677516 24.545141 34.779984 24.994141 34.458984 L 27.4375 32.712891 C 27.8865 32.391891 27.989969 31.766406 27.667969 31.316406 L 12.792969 10.542969 C 12.632469 10.318469 12.395078 10.180422 12.142578 10.138672 z M 7.2304688 14.800781 C 5.5904687 16.620781 4.2704687 18.639219 3.4804688 19.949219 C 2.8204688 21.049219 2.8808594 22.440234 3.6308594 23.490234 L 12.410156 35.759766 C 13.030156 36.619766 14.019063 37.119141 15.039062 37.119141 C 15.269063 37.119141 15.490703 37.089062 15.720703 37.039062 C 17.210703 36.719062 19.550781 36.120391 21.800781 35.150391 L 7.2304688 14.800781 z M 36.496094 17.171875 C 37.471106 17.374824 38.394642 17.762934 39.128906 18.386719 C 40.23328 19.324926 41 20.7396 41 23 L 41 33 L 39 33 L 39 23 C 39 21.443417 38.596635 20.329059 38.119141 19.554688 C 38.088259 19.440884 38.041792 19.33052 37.970703 19.230469 L 36.496094 17.171875 z"/></svg>