<?xml version="1.0"?><svg fill="#000000" xmlns="http://www.w3.org/2000/svg"  viewBox="0 0 24 24" width="24px" height="24px">    <path d="M 5 2 C 5 2 7.5915986 3.5677744 10.386719 6.1992188 L 2.0429688 14.542969 L 3.4570312 15.957031 L 11.800781 7.6132812 C 13.675012 9.6040895 14.998608 11.47145 15.607422 12.392578 L 14 14 L 14 16 L 13 15 L 8 15 L 8 20 L 10 22 L 12.828125 22 L 10 19.171875 L 10 17 L 12.171875 17 L 14 18.828125 L 14 22 L 16 22 L 16 14.828125 L 18 12.828125 L 20 14.828125 L 20 22 L 22 22 L 22 14 L 18 10 L 15.925781 12.074219 C 15.769535 10.731931 15.245356 8.1576184 13.458984 5.9550781 L 13.957031 5.4570312 L 12.542969 4.0429688 L 12.044922 4.5410156 C 8.9181465 2.0040129 5 2 5 2 z"/></svg>