<svg xmlns="http://www.w3.org/2000/svg" viewBox="0 0 80.29 72.59"><title>Asset 1</title><g id="Layer_2" data-name="Layer 2"><g id="Layer_1-2" data-name="Layer 1"><path d="M35.41,72.28l-22.92-18c2.66-.4,22.8-4.54,22.8-26.67C35.29,10.93,22.62,0,4.09,0H0V10.67H4.75c12.54,0,19.34,6.66,19.34,16.93S17.29,44.53,4.75,44.53H0V55.67L21,72.28Z" fill="#333"/><path d="M80.29,27.6C80.29,10.93,67.62,0,49.09,0H45V10.67h4.75c12.54,0,19.34,6.66,19.34,16.93s-6.8,16.93-19.34,16.93H45V55.67a125.67,125.67,0,0,0,12.49-1.4,30.82,30.82,0,0,0,13.07-5.7v24h9.68V29.27C80.27,28.72,80.29,28.17,80.29,27.6Z" fill="#9fc9eb"/></g></g></svg>